<svg xmlns="http://www.w3.org/2000/svg" width="1080" height="460" viewBox="0 0 1080 460"><rect width="100%" height="100%" fill="white"/><text x="540.0" y="28" text-anchor="middle" font-family="Arial, sans-serif" font-size="20" font-weight="700">Gain-adjusted SNR dB</text><line x1="70" y1="330.0" x2="1050" y2="330.0" stroke="#57606a" stroke-width="1"/><line x1="70" y1="55" x2="70" y2="330" stroke="#d0d7de" stroke-width="1"/><line x1="70" y1="330" x2="1050" y2="330" stroke="#d0d7de" stroke-width="1"/><rect x="70" y="430" width="14" height="14" fill="#0969da" opacity="0.86"/><text x="88" y="442" font-family="Arial, sans-serif" font-size="12" fill="#0969da">at3rs-&gt;at3rs</text><rect x="194" y="430" width="14" height="14" fill="#8250df" opacity="0.86"/><text x="212" y="442" font-family="Arial, sans-serif" font-size="12" fill="#8250df">at3rs-&gt;sony</text><rect x="311" y="430" width="14" height="14" fill="#bf8700" opacity="0.86"/><text x="329" y="442" font-family="Arial, sans-serif" font-size="12" fill="#bf8700">sony-&gt;at3rs</text><rect x="428" y="430" width="14" height="14" fill="#cf222e" opacity="0.86"/><text x="446" y="442" font-family="Arial, sans-serif" font-size="12" fill="#cf222e">sony-&gt;sony</text><line x1="70" y1="330.0" x2="1050" y2="330.0" stroke="#d8dee4" stroke-width="0.8"/><text x="62" y="334.0" text-anchor="end" font-family="Arial, sans-serif" font-size="11" fill="#57606a">0.0</text><line x1="70" y1="261.2" x2="1050" y2="261.2" stroke="#d8dee4" stroke-width="0.8"/><text x="62" y="265.2" text-anchor="end" font-family="Arial, sans-serif" font-size="11" fill="#57606a">16.4</text><line x1="70" y1="192.5" x2="1050" y2="192.5" stroke="#d8dee4" stroke-width="0.8"/><text x="62" y="196.5" text-anchor="end" font-family="Arial, sans-serif" font-size="11" fill="#57606a">32.9</text><line x1="70" y1="123.8" x2="1050" y2="123.8" stroke="#d8dee4" stroke-width="0.8"/><text x="62" y="127.8" text-anchor="end" font-family="Arial, sans-serif" font-size="11" fill="#57606a">49.3</text><line x1="70" y1="55.0" x2="1050" y2="55.0" stroke="#d8dee4" stroke-width="0.8"/><text x="62" y="59.0" text-anchor="end" font-family="Arial, sans-serif" font-size="11" fill="#57606a">65.7</text><rect x="58.9" y="330.0" width="30.5" height="1.0" fill="#0969da" opacity="0.86"/><text x="74.1" y="325.0" text-anchor="middle" font-family="Arial, sans-serif" font-size="10" fill="#24292f">0.0</text><rect x="92.4" y="294.9" width="30.5" height="35.1" fill="#8250df" opacity="0.86"/><text x="107.7" y="289.9" text-anchor="middle" font-family="Arial, sans-serif" font-size="10" fill="#24292f">8.4</text><rect x="126.0" y="330.0" width="30.5" height="1.0" fill="#bf8700" opacity="0.86"/><text x="141.2" y="325.0" text-anchor="middle" font-family="Arial, sans-serif" font-size="10" fill="#24292f">0.0</text><rect x="159.5" y="283.3" width="30.5" height="46.7" fill="#cf222e" opacity="0.86"/><text x="174.8" y="278.3" text-anchor="middle" font-family="Arial, sans-serif" font-size="10" fill="#24292f">11.2</text><text x="124.4" y="348" text-anchor="end" transform="rotate(-35 124.4 348)" font-family="Arial, sans-serif" font-size="11">billiejean_30s.wav</text><rect x="167.8" y="330.0" width="30.5" height="1.0" fill="#0969da" opacity="0.86"/><text x="183.0" y="325.0" text-anchor="middle" font-family="Arial, sans-serif" font-size="10" fill="#24292f">0.0</text><rect x="201.3" y="244.4" width="30.5" height="85.6" fill="#8250df" opacity="0.86"/><text x="216.6" y="239.4" text-anchor="middle" font-family="Arial, sans-serif" font-size="10" fill="#24292f">20.5</text><rect x="234.9" y="330.0" width="30.5" height="1.0" fill="#bf8700" opacity="0.86"/><text x="250.1" y="325.0" text-anchor="middle" font-family="Arial, sans-serif" font-size="10" fill="#24292f">0.0</text><rect x="268.4" y="242.8" width="30.5" height="87.2" fill="#cf222e" opacity="0.86"/><text x="283.6" y="237.8" text-anchor="middle" font-family="Arial, sans-serif" font-size="10" fill="#24292f">20.8</text><text x="233.3" y="348" text-anchor="end" transform="rotate(-35 233.3 348)" font-family="Arial, sans-serif" font-size="11">iwish_30s.wav</text><rect x="276.7" y="330.0" width="30.5" height="1.0" fill="#0969da" opacity="0.86"/><text x="291.9" y="325.0" text-anchor="middle" font-family="Arial, sans-serif" font-size="10" fill="#24292f">0.0</text><rect x="310.2" y="263.3" width="30.5" height="66.7" fill="#8250df" opacity="0.86"/><text x="325.5" y="258.3" text-anchor="middle" font-family="Arial, sans-serif" font-size="10" fill="#24292f">15.9</text><rect x="343.7" y="330.0" width="30.5" height="1.0" fill="#bf8700" opacity="0.86"/><text x="359.0" y="325.0" text-anchor="middle" font-family="Arial, sans-serif" font-size="10" fill="#24292f">0.0</text><rect x="377.3" y="271.6" width="30.5" height="58.4" fill="#cf222e" opacity="0.86"/><text x="392.5" y="266.6" text-anchor="middle" font-family="Arial, sans-serif" font-size="10" fill="#24292f">14.0</text><text x="342.2" y="348" text-anchor="end" transform="rotate(-35 342.2 348)" font-family="Arial, sans-serif" font-size="11">log_sweep_20hz_20000hz_10s.wav</text><rect x="385.6" y="330.0" width="30.5" height="1.0" fill="#0969da" opacity="0.86"/><text x="400.8" y="325.0" text-anchor="middle" font-family="Arial, sans-serif" font-size="10" fill="#24292f">0.0</text><rect x="419.1" y="262.1" width="30.5" height="67.9" fill="#8250df" opacity="0.86"/><text x="434.3" y="257.1" text-anchor="middle" font-family="Arial, sans-serif" font-size="10" fill="#24292f">16.2</text><rect x="452.6" y="330.0" width="30.5" height="1.0" fill="#bf8700" opacity="0.86"/><text x="467.9" y="325.0" text-anchor="middle" font-family="Arial, sans-serif" font-size="10" fill="#24292f">0.0</text><rect x="486.2" y="182.0" width="30.5" height="148.0" fill="#cf222e" opacity="0.86"/><text x="501.4" y="177.0" text-anchor="middle" font-family="Arial, sans-serif" font-size="10" fill="#24292f">35.4</text><text x="451.1" y="348" text-anchor="end" transform="rotate(-35 451.1 348)" font-family="Arial, sans-serif" font-size="11">log_sweep_20hz_20000hz_30s.wav</text><rect x="494.4" y="330.0" width="30.5" height="1.0" fill="#0969da" opacity="0.86"/><text x="509.7" y="325.0" text-anchor="middle" font-family="Arial, sans-serif" font-size="10" fill="#24292f">0.0</text><rect x="528.0" y="257.1" width="30.5" height="72.9" fill="#8250df" opacity="0.86"/><text x="543.2" y="252.1" text-anchor="middle" font-family="Arial, sans-serif" font-size="10" fill="#24292f">17.4</text><rect x="561.5" y="330.0" width="30.5" height="1.0" fill="#bf8700" opacity="0.86"/><text x="576.8" y="325.0" text-anchor="middle" font-family="Arial, sans-serif" font-size="10" fill="#24292f">0.0</text><rect x="595.1" y="250.1" width="30.5" height="79.9" fill="#cf222e" opacity="0.86"/><text x="610.3" y="245.1" text-anchor="middle" font-family="Arial, sans-serif" font-size="10" fill="#24292f">19.1</text><text x="560.0" y="348" text-anchor="end" transform="rotate(-35 560.0 348)" font-family="Arial, sans-serif" font-size="11">magnetic_30s.wav</text><rect x="603.3" y="330.0" width="30.5" height="1.0" fill="#0969da" opacity="0.86"/><text x="618.6" y="325.0" text-anchor="middle" font-family="Arial, sans-serif" font-size="10" fill="#24292f">0.0</text><rect x="636.9" y="317.5" width="30.5" height="12.5" fill="#8250df" opacity="0.86"/><text x="652.1" y="312.5" text-anchor="middle" font-family="Arial, sans-serif" font-size="10" fill="#24292f">3.0</text><rect x="670.4" y="330.0" width="30.5" height="1.0" fill="#bf8700" opacity="0.86"/><text x="685.7" y="325.0" text-anchor="middle" font-family="Arial, sans-serif" font-size="10" fill="#24292f">0.0</text><rect x="704.0" y="314.7" width="30.5" height="15.3" fill="#cf222e" opacity="0.86"/><text x="719.2" y="309.7" text-anchor="middle" font-family="Arial, sans-serif" font-size="10" fill="#24292f">3.6</text><text x="668.9" y="348" text-anchor="end" transform="rotate(-35 668.9 348)" font-family="Arial, sans-serif" font-size="11">noise.wav</text><rect x="712.2" y="330.0" width="30.5" height="1.0" fill="#0969da" opacity="0.86"/><text x="727.5" y="325.0" text-anchor="middle" font-family="Arial, sans-serif" font-size="10" fill="#24292f">0.0</text><rect x="745.8" y="249.6" width="30.5" height="80.4" fill="#8250df" opacity="0.86"/><text x="761.0" y="244.6" text-anchor="middle" font-family="Arial, sans-serif" font-size="10" fill="#24292f">19.2</text><rect x="779.3" y="330.0" width="30.5" height="1.0" fill="#bf8700" opacity="0.86"/><text x="794.5" y="325.0" text-anchor="middle" font-family="Arial, sans-serif" font-size="10" fill="#24292f">0.0</text><rect x="812.8" y="243.1" width="30.5" height="86.9" fill="#cf222e" opacity="0.86"/><text x="828.1" y="238.1" text-anchor="middle" font-family="Arial, sans-serif" font-size="10" fill="#24292f">20.8</text><text x="777.8" y="348" text-anchor="end" transform="rotate(-35 777.8 348)" font-family="Arial, sans-serif" font-size="11">secretgarden_30s.wav</text><rect x="821.1" y="330.0" width="30.5" height="1.0" fill="#0969da" opacity="0.86"/><text x="836.4" y="325.0" text-anchor="middle" font-family="Arial, sans-serif" font-size="10" fill="#24292f">0.0</text><rect x="854.7" y="189.2" width="30.5" height="140.8" fill="#8250df" opacity="0.86"/><text x="869.9" y="184.2" text-anchor="middle" font-family="Arial, sans-serif" font-size="10" fill="#24292f">33.6</text><rect x="888.2" y="330.0" width="30.5" height="1.0" fill="#bf8700" opacity="0.86"/><text x="903.4" y="325.0" text-anchor="middle" font-family="Arial, sans-serif" font-size="10" fill="#24292f">0.0</text><rect x="921.7" y="55.0" width="30.5" height="275.0" fill="#cf222e" opacity="0.86"/><text x="937.0" y="50.0" text-anchor="middle" font-family="Arial, sans-serif" font-size="10" fill="#24292f">65.7</text><text x="886.7" y="348" text-anchor="end" transform="rotate(-35 886.7 348)" font-family="Arial, sans-serif" font-size="11">test.wav</text><rect x="930.0" y="330.0" width="30.5" height="1.0" fill="#0969da" opacity="0.86"/><text x="945.2" y="325.0" text-anchor="middle" font-family="Arial, sans-serif" font-size="10" fill="#24292f">0.0</text><rect x="963.5" y="247.4" width="30.5" height="82.6" fill="#8250df" opacity="0.86"/><text x="978.8" y="242.4" text-anchor="middle" font-family="Arial, sans-serif" font-size="10" fill="#24292f">19.8</text><rect x="997.1" y="330.0" width="30.5" height="1.0" fill="#bf8700" opacity="0.86"/><text x="1012.3" y="325.0" text-anchor="middle" font-family="Arial, sans-serif" font-size="10" fill="#24292f">0.0</text><rect x="1030.6" y="244.8" width="30.5" height="85.2" fill="#cf222e" opacity="0.86"/><text x="1045.9" y="239.8" text-anchor="middle" font-family="Arial, sans-serif" font-size="10" fill="#24292f">20.4</text><text x="995.6" y="348" text-anchor="end" transform="rotate(-35 995.6 348)" font-family="Arial, sans-serif" font-size="11">walkmehome_30s.wav</text></svg>